<svg id="visual" viewBox="0 0 900 900" width="900" height="900" xmlns="http://www.w3.org/2000/svg" xmlns:xlink="http://www.w3.org/1999/xlink" version="1.1"><rect x="0" y="0" width="900" height="900" fill="#d3dcfc"></rect><defs><linearGradient id="grad1_0" x1="0%" y1="0%" x2="100%" y2="100%"><stop offset="30%" stop-color="#d3dcfc" stop-opacity="1"></stop><stop offset="70%" stop-color="#d3dcfc" stop-opacity="1"></stop></linearGradient></defs><defs><linearGradient id="grad2_0" x1="0%" y1="0%" x2="100%" y2="100%"><stop offset="30%" stop-color="#d3dcfc" stop-opacity="1"></stop><stop offset="70%" stop-color="#d3dcfc" stop-opacity="1"></stop></linearGradient></defs><g transform="translate(900, 0)"><path d="M0 572.8C-67.6 537.1 -135.2 501.3 -193.3 466.6C-251.3 431.8 -299.8 397.9 -359.9 359.9C-420 321.9 -491.7 279.9 -529.2 219.2C-566.6 158.5 -569.7 79.3 -572.8 0L0 0Z" fill="#3f6be5"></path></g><g transform="translate(0, 900)"><path d="M0 -572.8C82.4 -573 164.7 -573.3 219.2 -529.2C273.6 -485 300.2 -396.5 335.2 -335.2C370.1 -273.8 413.5 -239.6 454.5 -188.3C495.6 -136.9 534.2 -68.5 572.8 0L0 0Z" fill="#3f6be5"></path></g></svg>