<svg id="visual" viewBox="0 0 960 540" width="960" height="540" xmlns="http://www.w3.org/2000/svg" xmlns:xlink="http://www.w3.org/1999/xlink" version="1.1"><path d="M0 384L40 375.3C80 366.7 160 349.3 240 353.7C320 358 400 384 480 383.7C560 383.3 640 356.7 720 351.3C800 346 880 362 920 370L960 378L960 541L920 541C880 541 800 541 720 541C640 541 560 541 480 541C400 541 320 541 240 541C160 541 80 541 40 541L0 541Z" fill="#f3f3f3"></path><path d="M0 384L40 383.3C80 382.7 160 381.3 240 386C320 390.7 400 401.3 480 407.5C560 413.7 640 415.3 720 420.8C800 426.3 880 435.7 920 440.3L960 445L960 541L920 541C880 541 800 541 720 541C640 541 560 541 480 541C400 541 320 541 240 541C160 541 80 541 40 541L0 541Z" fill="#cdd7f6"></path><path d="M0 445L40 444.2C80 443.3 160 441.7 240 447.7C320 453.7 400 467.3 480 473.2C560 479 640 477 720 473.7C800 470.3 880 465.7 920 463.3L960 461L960 541L920 541C880 541 800 541 720 541C640 541 560 541 480 541C400 541 320 541 240 541C160 541 80 541 40 541L0 541Z" fill="#a4bbf9"></path></svg>